<?xml version="1.0" encoding="utf-8"?>
<!-- Generator: Adobe Illustrator 21.0.2, SVG Export Plug-In . SVG Version: 6.00 Build 0)  -->
<svg version="1.1" xmlns="http://www.w3.org/2000/svg" xmlns:xlink="http://www.w3.org/1999/xlink" x="0px" y="0px"
	 viewBox="0 0 24 24" style="enable-background:new 0 0 24 24;" xml:space="preserve">
<style type="text/css">
	.st0{fill:#FFFFFF;}
	.st1{fill:#B07DFB;}
	.st2{fill:none;stroke:#8844EE;stroke-linecap:round;stroke-linejoin:round;stroke-miterlimit:10;}
	.st3{fill:none;}
</style>
<g id="Duotone">
	<polygon class="st0" points="23.5,0.5 19.5,5.5 16,7 12,5.5 8,7 4.5,5.5 0.5,0.5 1.5,6.5 5.5,10.5 1.5,12 4,14.5 5.8,12.7 
		6.5,18.2 6.5,18.2 5.5,18.5 7,23.5 9.5,23.5 12,22 14.5,23.5 17,23.5 18.5,18.5 17.5,18.2 17.5,18.2 18.2,12.7 20,14.5 22.5,12 
		18.5,10.5 22.5,6.5 	"/>
	<polygon class="st1" points="6.5,18.2 12,16.5 17.8,18.3 17.8,18.3 17.5,18.2 17.5,18.2 18.2,12.9 15,9 12,8 9,9 5.8,12.9 
		6.5,18.2 	"/>
	<polygon class="st1" points="5.5,18.5 9,21.5 12,19.5 15,21.5 18.5,18.5 17,23.5 14.5,23.5 12,22 9.5,23.5 7,23.5 	"/>
	<polyline class="st2" points="6.5,18.2 5.5,10.5 8,7 12,5.5 16,7 18.5,10.5 17.5,18.2 	"/>
	<polygon class="st2" points="17,23.5 14.5,23.5 12,22 9.5,23.5 7,23.5 5.5,18.5 12,16.5 18.5,18.5 	"/>
	<polyline class="st2" points="8,7 4.5,5.5 0.5,0.5 1.5,6.5 5.5,10.5 1.5,12 4,14.5 5.8,12.7 	"/>
	<polyline class="st2" points="16,7 19.5,5.5 23.5,0.5 22.5,6.5 18.5,10.5 22.5,12 20,14.5 18.2,12.7 	"/>
	<line class="st2" x1="9.5" y1="12.5" x2="9.5" y2="11.5"/>
	<line class="st2" x1="10.5" y1="19.5" x2="10.5" y2="20.5"/>
	<line class="st2" x1="14.5" y1="12.5" x2="14.5" y2="11.5"/>
	<line class="st2" x1="13.5" y1="19.5" x2="13.5" y2="20.5"/>
</g>
<g id="Frames-24px">
	<rect class="st3" width="24" height="24"/>
</g>
</svg>
