<svg xmlns="http://www.w3.org/2000/svg" width="229.094" height="144.594" viewBox="0 0 229.094 144.594">
  <metadata><?xpacket begin="﻿" id="W5M0MpCehiHzreSzNTczkc9d"?>
<x:xmpmeta xmlns:x="adobe:ns:meta/" x:xmptk="Adobe XMP Core 5.6-c140 79.160451, 2017/05/06-01:08:21        ">
   <rdf:RDF xmlns:rdf="http://www.w3.org/1999/02/22-rdf-syntax-ns#">
      <rdf:Description rdf:about=""/>
   </rdf:RDF>
</x:xmpmeta>
                                                                                                    
                                                                                                    
                                                                                                    
                                                                                                    
                                                                                                    
                                                                                                    
                                                                                                    
                                                                                                    
                                                                                                    
                                                                                                    
                                                                                                    
                                                                                                    
                                                                                                    
                                                                                                    
                                                                                                    
                                                                                                    
                                                                                                    
                                                                                                    
                                                                                                    
                                                                                                    
                           
<?xpacket end="w"?></metadata>
<defs>
    <style>
      .cls-1 {
        fill: #2a2426;
        fill-rule: evenodd;
      }
    </style>
  </defs>
  <path id="_" data-name="§" class="cls-1" d="M250.066,124.608a1.36,1.36,0,0,1-1.068-.534,3.782,3.782,0,0,1-.7-1.6,21.625,21.625,0,0,1-.39-2.239,27,27,0,0,1-.165-2.918q-0.021-1.746-.02-3.1t0.041-3.328q0.041-1.973.041-3.081V83.316q0-1.808.021-2.753t0.143-2.136a8.915,8.915,0,0,1,.309-1.746,6.13,6.13,0,0,1,.616-1.253,2.606,2.606,0,0,1,.986-0.986,14.478,14.478,0,0,1,1.479-.637,9.868,9.868,0,0,1,2.013-.514q1.089-.164,2.692-0.329V70.7l-0.7-.7H230.549l-0.657.7v1.931q6.245,0.37,6.985,3.534a32.44,32.44,0,0,1,.411,5.382v37.513a37.578,37.578,0,0,1-.247,5.834,2.7,2.7,0,0,1-.493.822q-0.369.451-1.006,1.088t-0.8.843v1.438q31.761,0,39.321.411l1.767-5.958-1.11-.781a247.047,247.047,0,0,1-24.652,1.849h0Zm39.361-17.174a1.145,1.145,0,0,1-.246.041c-0.411,0-.616-0.15-0.616-0.452a27.326,27.326,0,0,1,.308-4.068,21.091,21.091,0,0,1,1.15-4.293,16.291,16.291,0,0,1,2.1-3.944,9.859,9.859,0,0,1,7.991-3.924,6.463,6.463,0,0,1,5.711,2.835,11.26,11.26,0,0,1,1.931,6.492,2.079,2.079,0,0,1-1.376,1.931,67.213,67.213,0,0,1-6.882,2.342q-5.712,1.686-9.82,3A1.152,1.152,0,0,0,289.427,107.434Zm24.406,12.819q-7.4,4.479-12.778,4.479a11.7,11.7,0,0,1-6.82-2.014,12.194,12.194,0,0,1-4.294-5.033,15.507,15.507,0,0,1-1.376-6.512q26.871-8.34,27.117-8.341a3.038,3.038,0,0,0,2.424-3.122,11.7,11.7,0,0,0-1.376-5.793,10.032,10.032,0,0,0-3.719-3.842,18.034,18.034,0,0,0-5.074-2.013,25.958,25.958,0,0,0-5.9-.637A24.925,24.925,0,0,0,291.687,89.5a19.843,19.843,0,0,0-7.416,5.547,25.213,25.213,0,0,0-4.294,7.807,27.862,27.862,0,0,0-1.479,9.059q0,9.492,5.136,14.217,4.642,4.314,13.107,4.314a21.193,21.193,0,0,0,9.306-2.26,71.877,71.877,0,0,0,9.964-6l-0.9-1.6Zm-38.17,40.635a12.008,12.008,0,0,0-6.04-6.533,25.557,25.557,0,0,0-10.888-1.972,32.048,32.048,0,0,0-8.073.986,24.6,24.6,0,0,0-6.944,2.959,14.248,14.248,0,0,0-4.992,5.362,15.991,15.991,0,0,0-1.849,7.786,11.912,11.912,0,0,0,1.376,5.567,15.553,15.553,0,0,0,3.452,4.5,41.925,41.925,0,0,0,4.848,3.677,56.534,56.534,0,0,0,5.3,3.123q2.528,1.294,5.054,2.794a22.69,22.69,0,0,1,3.842,2.732q4.56,4.233,4.56,8.053a9.887,9.887,0,0,1-3.164,7.211,10.4,10.4,0,0,1-7.6,3.143,10.867,10.867,0,0,1-8.69-3.944,13.516,13.516,0,0,1-3.348-9l-1.6-.576-8.176,9.163a19.128,19.128,0,0,0,7.355,6.307,21.621,21.621,0,0,0,9.655,2.2,30.619,30.619,0,0,0,9-1.4,33.251,33.251,0,0,0,8.3-3.8,20.039,20.039,0,0,0,6.1-6.08,14.237,14.237,0,0,0,2.363-7.828,12.114,12.114,0,0,0-.781-4.375,13.986,13.986,0,0,0-2.013-3.616,17.969,17.969,0,0,0-3.431-3.225,43.93,43.93,0,0,0-4.376-2.9q-2.178-1.252-5.505-2.979-2.343-1.149-3.821-1.993T252.12,174A17.3,17.3,0,0,1,249,171.263a12.66,12.66,0,0,1-1.973-3.205,9.741,9.741,0,0,1-.821-3.965,8.325,8.325,0,0,1,2.4-6.04,8.468,8.468,0,0,1,6.348-2.465,9.867,9.867,0,0,1,7.745,3.246,14.354,14.354,0,0,1,3.513,7.848l1.438,0.452Zm39.957,15.757a8.31,8.31,0,0,0-3.081-3.081,14.868,14.868,0,0,0-4.068-1.582,20.892,20.892,0,0,0-4.663-.493,24.394,24.394,0,0,0-8.772,1.5,19.067,19.067,0,0,0-6.492,3.964,21.511,21.511,0,0,0-4.273,5.814,27.57,27.57,0,0,0-2.445,6.882,35.828,35.828,0,0,0-.739,7.355,21.563,21.563,0,0,0,.883,6.2,18.433,18.433,0,0,0,2.65,5.444,12.221,12.221,0,0,0,4.828,3.945,16.2,16.2,0,0,0,7.046,1.458q11.545,0,21.694-10.148l-0.821-1.192-1.027-.246q-7.519,5.793-13.888,5.793a9.847,9.847,0,0,1-4.581-1.048A9.249,9.249,0,0,1,294.6,204.5a16.444,16.444,0,0,1-2.075-3.821,20.5,20.5,0,0,1-1.171-4.211,25.976,25.976,0,0,1-.328-4.109,32.194,32.194,0,0,1,.452-5.218,35.185,35.185,0,0,1,1.438-5.649,11.777,11.777,0,0,1,2.917-4.767,6.292,6.292,0,0,1,4.52-1.869,6.05,6.05,0,0,1,5.587,3.04,14.407,14.407,0,0,1,1.808,7.478l1.438,0.576,7.766-4.6A10.4,10.4,0,0,0,315.62,176.645Zm15.059,12.224a25.3,25.3,0,0,1,1.089-4.746,17.74,17.74,0,0,1,1.992-4.252,9.514,9.514,0,0,1,3.185-2.979,8.785,8.785,0,0,1,4.54-1.171,9.087,9.087,0,0,1,4.91,1.294,8.554,8.554,0,0,1,3.184,3.534,18.788,18.788,0,0,1,1.6,4.745,27.862,27.862,0,0,1,.494,5.383q0,2.465-.042,4.108t-0.287,3.945a23.6,23.6,0,0,1-.678,3.821,19.624,19.624,0,0,1-1.253,3.205,8.029,8.029,0,0,1-1.993,2.67,9.889,9.889,0,0,1-2.917,1.644,11.335,11.335,0,0,1-4.006.657,7.3,7.3,0,0,1-4.212-1.274,9.432,9.432,0,0,1-2.937-3.143,19.446,19.446,0,0,1-1.767-4.293,28.428,28.428,0,0,1-.945-4.5,33.723,33.723,0,0,1-.247-3.965A37.678,37.678,0,0,1,330.679,188.869Zm-5.095,21.242q4.478,4.068,14.216,4.067a29.546,29.546,0,0,0,7.129-.821,21.07,21.07,0,0,0,6.2-2.65,18.347,18.347,0,0,0,4.951-4.582,21.339,21.339,0,0,0,3.246-6.82,32.428,32.428,0,0,0,1.192-9.121,17.1,17.1,0,0,0-5.629-13.231q-5.137-4.6-14.915-4.6t-16.106,6.039a20.178,20.178,0,0,0-6.328,15.244q0,11.012,6.04,16.476h0Zm64.3-32.541q3.286,0,4.684,1.315a7.192,7.192,0,0,1,1.581,3.7,30.338,30.338,0,0,1,.637,4.869q0.082,2.157.082,5.568,0,2.013-.02,4.766t-0.041,4.088q-0.021,1.335.02,3.143a25.389,25.389,0,0,0,.165,2.691q0.123,0.885.328,1.931a5.2,5.2,0,0,0,.576,1.664,4.981,4.981,0,0,0,.9,1.11,6.373,6.373,0,0,0,4.519,1.643q3.082,0,7.067-3.122a77.579,77.579,0,0,0,6.328-5.876l-0.945-1.4h-0.987a10.027,10.027,0,0,1-5.628,2.178,3.224,3.224,0,0,1-2.384-.863,3.154,3.154,0,0,1-.719-0.8,5.867,5.867,0,0,1-.431-1.685,23.9,23.9,0,0,1-.205-3.554q0-1.356.143-4.376t0.144-4.293V187.8q0.041-3.984-.02-5.526a39.215,39.215,0,0,0-.473-4.191,7.616,7.616,0,0,0-1.274-3.656,8.547,8.547,0,0,0-2.547-1.89,8.954,8.954,0,0,0-4.191-.884q-7.232,0-16.763,5.917l-0.987-.37a7.78,7.78,0,0,0-1.417-4.211q-1.212-1.583-4.17-1.582a11.24,11.24,0,0,0-3.472.595,16.855,16.855,0,0,0-3.7,1.767q-1.87,1.172-3.246,2.178t-3.184,2.444l1.52,2.014q0.123-.083.842-0.534t1.253-.74q0.535-.287,1.274-0.678a8.823,8.823,0,0,1,1.377-.6,3.762,3.762,0,0,1,1.129-.205,2.572,2.572,0,0,1,1.356.349,2.306,2.306,0,0,1,.9,1.151,14.622,14.622,0,0,1,.534,1.52,10.466,10.466,0,0,1,.288,2.116q0.083,1.4.1,2.26t0.02,2.588v0.7q0,4.026-.616,24.652l1.027,0.575,9.245-2.671q-0.411-1.766-.617-11.134t-0.2-18.325q7.149-3.861,10.19-3.862h0Zm39.854,14.01a1.109,1.109,0,0,1-.246.042q-0.616,0-.617-0.452a27.328,27.328,0,0,1,.309-4.068,21.109,21.109,0,0,1,1.15-4.294,16.335,16.335,0,0,1,2.095-3.944,9.863,9.863,0,0,1,7.992-3.924,6.463,6.463,0,0,1,5.711,2.835,11.26,11.26,0,0,1,1.931,6.492,2.081,2.081,0,0,1-1.376,1.931,67.477,67.477,0,0,1-6.882,2.342q-5.712,1.686-9.82,3A1.21,1.21,0,0,0,429.74,191.58Zm24.406,12.82q-7.4,4.479-12.778,4.478a11.711,11.711,0,0,1-6.821-2.013,12.2,12.2,0,0,1-4.293-5.033,15.512,15.512,0,0,1-1.377-6.513q26.871-8.34,27.118-8.34a3.038,3.038,0,0,0,2.424-3.123,11.7,11.7,0,0,0-1.376-5.793,10.03,10.03,0,0,0-3.719-3.842,18.057,18.057,0,0,0-5.074-2.013,25.975,25.975,0,0,0-5.9-.637A24.92,24.92,0,0,0,432,173.646a19.832,19.832,0,0,0-7.416,5.547A25.22,25.22,0,0,0,420.29,187a27.864,27.864,0,0,0-1.479,9.06q0,9.49,5.136,14.216,4.642,4.314,13.107,4.314a21.191,21.191,0,0,0,9.306-2.259,72.034,72.034,0,0,0,9.964-6l-0.9-1.6ZM427.934,83.378a29.209,29.209,0,0,0-4.083,6.917q-2.139,4.7-4,9.361T415.8,108.8a25.62,25.62,0,0,1-5.111,7.277,8.963,8.963,0,0,1-6.305,2.806,11.348,11.348,0,0,1-7.611-3.278,27.062,27.062,0,0,0,4.639-7.25q2.195-4.693,3.888-9.222t3.667-8.805a21.3,21.3,0,0,1,4.861-6.917,9.527,9.527,0,0,1,6.611-2.639,11.706,11.706,0,0,1,7.5,2.611h0Zm23.3,39.666a15.174,15.174,0,0,0,4.611-5.583,29.3,29.3,0,0,0,2.389-7.083,39.883,39.883,0,0,0,.75-7.889,24.786,24.786,0,0,0-2.75-11.472,22.268,22.268,0,0,0-7.556-8.555,18.448,18.448,0,0,0-10.416-3.194,14.561,14.561,0,0,0-8.5,2.389A20.367,20.367,0,0,0,414.379,75.1a10.409,10.409,0,0,0-4.389.917,12.072,12.072,0,0,0-3.361,2.222,17.287,17.287,0,0,0-2.695,3.5,42.533,42.533,0,0,0-2.166,3.972q-0.834,1.779-2,4.417t-2,4.194l-5.556,11.61a9.523,9.523,0,0,1-9.222,5.667,13.581,13.581,0,0,1-8.583-2.972,9.377,9.377,0,0,1-3.805-7.75,7.747,7.747,0,0,1,2.833-6.528q2.834-2.194,7.944-2.194l1.278-1.833-2.389-7.611a27.564,27.564,0,0,0-4.222-.833,6.825,6.825,0,0,0-4.361,1.472,9.04,9.04,0,0,0-2.806,3.889,26.124,26.124,0,0,0-1.388,4.889,28.393,28.393,0,0,0-.445,5.028q0,9.555,5.806,15.694a18.847,18.847,0,0,0,14.249,6.139,21.737,21.737,0,0,0,6.945-1.333q7.833,6.111,14.333,6.111a15.039,15.039,0,0,0,9.638-3.334,17.2,17.2,0,0,0,3.417-4.055,44.727,44.727,0,0,0,2.778-4.972q1.111-2.361,2.611-6.084,1.167-2.887,1.805-4.388t1.722-3.778a32.9,32.9,0,0,1,1.834-3.444q0.75-1.167,1.861-2.667a9.325,9.325,0,0,1,2.139-2.194,11.274,11.274,0,0,1,2.361-1.194,8,8,0,0,1,2.833-.5,13.633,13.633,0,0,1,10.083,4.055,13.842,13.842,0,0,1,4.028,10.167q0,6.5-3.833,10.194a15.784,15.784,0,0,1-9.834,4.25l-0.666,1,3.055,9A14.887,14.887,0,0,0,451.239,123.044Z" transform="translate(-229.906 -70)"/>
</svg>
