<?xml version="1.0" encoding="utf-8"?>
<!-- Generator: Adobe Illustrator 21.0.2, SVG Export Plug-In . SVG Version: 6.00 Build 0)  -->
<svg version="1.1" xmlns="http://www.w3.org/2000/svg" xmlns:xlink="http://www.w3.org/1999/xlink" x="0px" y="0px"
	 viewBox="0 0 24 24" style="enable-background:new 0 0 24 24;" xml:space="preserve">
<style type="text/css">
	.st0{fill:#FFFFFF;}
	.st1{fill:#B07DFB;}
	.st2{fill:none;stroke:#8844EE;stroke-linecap:round;stroke-linejoin:round;stroke-miterlimit:10;}
	.st3{fill:none;}
</style>
<g id="Duotone">
	<polygon class="st0" points="8,4.5 3.5,1.5 3.5,12 1.5,19 11.5,22.5 21.5,19 19.5,12 19.5,1.5 15,4.5 	"/>
	<polygon class="st1" points="1.5,19 4,17.5 11.5,20 20,17.5 21.5,19 11.5,22.5 	"/>
	<polyline class="st1" points="8,4.5 9.5,8.5 11.5,4.5 	"/>
	<polyline class="st1" points="11.5,4.5 13.5,8.5 15,4.5 	"/>
	<polyline class="st2" points="8,4.5 9.5,8.5 11.5,4.5 	"/>
	<polyline class="st2" points="11.5,4.5 13.5,8.5 15,4.5 	"/>
	<line class="st2" x1="11.5" y1="22.5" x2="11.5" y2="17.5"/>
	<polyline class="st2" points="9,15.5 11.5,17.5 14,15.5 	"/>
	<line class="st2" x1="8.5" y1="10.5" x2="8.5" y2="11.5"/>
	<line class="st2" x1="14.5" y1="10.5" x2="14.5" y2="11.5"/>
	<line class="st2" x1="17.5" y1="15.5" x2="22.5" y2="13.5"/>
	<line class="st2" x1="18" y1="17.5" x2="22.5" y2="16.5"/>
	<polygon class="st2" points="8,4.5 3.5,1.5 3.5,12 1.5,19 11.5,22.5 21.5,19 19.5,12 19.5,1.5 15,4.5 	"/>
	<line class="st2" x1="5.5" y1="15.5" x2="0.5" y2="13.5"/>
	<line class="st2" x1="5" y1="17.5" x2="0.5" y2="16.5"/>
</g>
<g id="Frames-24px">
	<rect class="st3" width="24" height="24"/>
</g>
</svg>
