<?xml version="1.0" encoding="utf-8"?>
<!-- Generator: Adobe Illustrator 21.0.2, SVG Export Plug-In . SVG Version: 6.00 Build 0)  -->
<svg version="1.1" xmlns="http://www.w3.org/2000/svg" xmlns:xlink="http://www.w3.org/1999/xlink" x="0px" y="0px"
	 viewBox="0 0 24 24" style="enable-background:new 0 0 24 24;" xml:space="preserve">
<style type="text/css">
	.st0{fill:#FFFFFF;}
	.st1{fill:#B07DFB;}
	.st2{fill:none;stroke:#8844EE;stroke-linecap:round;stroke-linejoin:round;stroke-miterlimit:10;}
	.st3{fill:none;}
</style>
<g id="Duotone">
	<polygon class="st0" points="16.5,13.5 16.5,12.5 11.5,10.5 6.5,12.5 6.5,13.5 3.5,12.5 4,14.5 6.5,15.5 6.5,16.5 8.5,18.5 
		8.5,21.5 11.5,23.5 14.5,21.5 14.5,18.5 16.5,16.5 16.5,15.5 19,14.5 19.5,12.5 	"/>
	<polygon class="st1" points="6.5,16.5 9.5,16.5 10.5,18 10.5,20.5 11.5,21.5 12.5,20.5 12.5,18 13.5,16.5 16.5,16.5 14.5,18.5 
		14.5,21.5 11.5,23.5 8.5,21.5 8.5,18.5 	"/>
	<polyline class="st2" points="6.5,12.5 2,8 0.5,2.5 	"/>
	<polygon class="st2" points="14.5,21.5 11.5,23.5 8.5,21.5 8.5,18.5 6.5,16.5 6.5,12.5 11.5,10.5 16.5,12.5 16.5,16.5 14.5,18.5 	
		"/>
	<line class="st2" x1="9.5" y1="14.5" x2="9.5" y2="15.5"/>
	<line class="st2" x1="13.5" y1="14.5" x2="13.5" y2="15.5"/>
	<line class="st2" x1="11.5" y1="21.5" x2="11.5" y2="23.5"/>
	<polyline class="st2" points="6.5,13.5 3.5,12.5 4,14.5 6.5,15.5 	"/>
	<polyline class="st2" points="16.5,13.5 19.5,12.5 19,14.5 16.5,15.5 	"/>
	<polyline class="st2" points="5.5,11.5 5.5,8.5 7,6.5 	"/>
	<polyline class="st2" points="2,8 3.5,4.5 6.5,2.5 	"/>
	<polyline class="st2" points="4.5,10.5 1,10.5 0.5,9.5 	"/>
	<polyline class="st2" points="16.5,12.5 21,8 22.5,2.5 	"/>
	<polyline class="st2" points="17.5,11.5 17.5,8.5 16,6.5 	"/>
	<polyline class="st2" points="21,8 19.5,4.5 16.5,2.5 	"/>
	<polyline class="st2" points="18.5,10.5 22,10.5 22.5,9.5 	"/>
</g>
<g id="Frames-24px">
	<rect class="st3" width="24" height="24"/>
</g>
</svg>
