<svg data-name="Layer 1" xmlns="http://www.w3.org/2000/svg" viewBox="0 0 214.62 35.57">
  <style>
    path {
      fill: white;
    }
  </style>
  <title>
    wildbeast
  </title>
  <path d="M23.7 35.52a7.56 7.56 0 0 1-6.52-3.4A12.64 12.64 0 0 1 9 35.52c-5.46 0-8.42-3.85-7.42-9.37.76-4.15 4.16-8.31 5.11-11.65-1.84-1.12-4.57-1.9-5.85.39L0 14.38c.67-2.51 2.29-4.18 4.63-4.18s4.07 1.39 6.3.11h1.78c-.95 5-3.35 9-4.63 16-.78 4.29.67 6.24 3.12 6.24a7.4 7.4 0 0 0 4.68-2.51 20.28 20.28 0 0 1-1.45-7.69c0-6.08 2.79-12.49 7.47-12.49 2.4 0 4.18 1.67 4.18 5.63s-2.4 10.09-5.46 13.94a4 4 0 0 0 3.9 3.29c4.46 0 7.58-6.69 7.58-12.88s-2.68-5.91-2.45-8A2 2 0 0 1 31.78 10c1.39 0 3.22 1.76 3.22 8.9 0 9.1-4.84 16.62-11.3 16.62zM22.69 13c-1.39 0-2.73 5.13-2.9 10.43a22.73 22.73 0 0 0 .06 3.4 26.68 26.68 0 0 0 3.74-11.43c-.01-1.8-.34-2.4-.9-2.4zM44.16 35.29a4 4 0 0 1-4.4-4.29c0-2.45 3.18-14.66 3.18-16.67 0-.95-.22-1.51-1.06-1.51a4.84 4.84 0 0 0-2.51 1.23v-1.73a8.19 8.19 0 0 1 5.3-2.17 4.05 4.05 0 0 1 4.4 4.35c0 2.45-3.18 14.61-3.18 16.61 0 .95.22 1.51 1.06 1.51a5.22 5.22 0 0 0 2.51-1.17v1.67a8.08 8.08 0 0 1-5.3 2.17zM48.06 0a3 3 0 0 1 3.07 3.4 3.84 3.84 0 0 1-3.73 3.4 3 3 0 0 1-3.07-3.4A3.84 3.84 0 0 1 48.06 0zM60.44 30.05c-.28 1.51-.11 2.56.95 2.56a5 5 0 0 0 2.51-1.17l.1 1.68a8.19 8.19 0 0 1-5.3 2.17c-3.46 0-4.8-2.51-4.29-5.63l3.4-19.35C58.94 3.85 58.55 3 55.09 3l.22-1.56L65.74.06zM89.77 30c-.28 1.51-.17 2.62.95 2.62a5.29 5.29 0 0 0 2.51-1.23v1.73a8 8 0 0 1-5.3 2.17 4 4 0 0 1-4.24-3.35 9.11 9.11 0 0 1-7.14 3.62c-6.63 0-9.42-5.85-8.14-12.88s7.25-12.77 14-12.77A9.39 9.39 0 0 1 87 11l.17-.89C88.49 3.23 87.88 3 84.42 3l.17-1.56L95.07.06zm-7.19-17.57c-3.85 0-6.41 4.57-7.42 10.2-1.06 5.91-.39 10 3.23 10 2.45 0 5.24-3 6.08-7.58l2.06-11.6a7.07 7.07 0 0 0-3.95-1.02zM107.39 35.57c-7.75 0-9.87-5.58-8.92-10.93L101 10.31c1.17-6.47.78-7.36-2.68-7.36l.22-1.56L109 .06l-2.12 12.15a9.35 9.35 0 0 1 5.85-2.29c6.75 0 9.92 5.74 8.7 12.77S114 35.57 107.39 35.57zm3.62-23a5.34 5.34 0 0 0-5 3.79l-1.56 9c-.95 5.35.95 7.53 3.35 7.53 3.51 0 5.69-3.9 6.86-10.31 1.04-5.74.09-9.98-3.66-9.98zM132 25.93c0 4.29 2.06 6.58 6 6.58 2 0 4.91-1.39 6.75-3.23l.78 1.78a14.41 14.41 0 0 1-10.26 4.52c-5.85 0-9.81-4.35-9.81-10.26 0-8.75 7.25-15.39 14.22-15.39 4.24 0 6.63 2.34 6.63 5.07-.05 4.24-4.07 9-14.31 10.93zm7.19-13.44c-3.18 0-6.24 4.63-7.08 11.26 6.41-1.56 9.14-5.91 9.2-8.7-.01-1.56-.74-2.56-2.13-2.56zM169.06 35.29a4 4 0 0 1-4.24-3.35 8.79 8.79 0 0 1-7 3.62c-6.52 0-9.31-5.85-8-12.88S157 9.92 163.77 9.92a10.54 10.54 0 0 1 4.18.84h6.36L170.9 30c-.28 1.51-.17 2.62.95 2.62a5.29 5.29 0 0 0 2.51-1.23v1.73a8 8 0 0 1-5.3 2.17zm-5.13-22.86c-3.74 0-6.36 4.57-7.36 10.2-1.06 5.91-.33 10 3 10 2.56 0 5.3-3.12 6.08-7.58l2.06-11.6a6.46 6.46 0 0 0-3.77-1.02zM193.82 16.5c-1.51 0-1.9-1.17-2.34-2.4a2.74 2.74 0 0 0-2.79-2.1 3.32 3.32 0 0 0-3.46 2.84c-.17 1.51.95 2.79 3.07 4.63l2.84 2.34a7.29 7.29 0 0 1 2.79 7c-.72 4.18-4.18 6.75-8.81 6.75-5.58 0-9.14-3.29-8.75-5.52a2.5 2.5 0 0 1 2.45-2.12c1.45 0 2 1.11 2.45 2.56a4 4 0 0 0 4.07 2.68 3.49 3.49 0 0 0 3.62-3c.22-2-1-3.23-3.29-5.3l-2.79-2.45a7 7 0 0 1-2.68-6.52c.5-2.68 3-6 8.75-6 4.46 0 7.25 2.51 7 4.52a2.2 2.2 0 0 1-2.13 2.09zM214.23 13h-5.41l-2.62 14.82c-.56 3.07-.11 4.46 1.56 4.46.89 0 2.29-.5 4.29-2.56l.11 2.17a9.74 9.74 0 0 1-7.36 3.46c-3.79 0-5.69-2.68-4.79-7.64L202.63 13h-4.23l.33-2.29H203l1.12-6.63h6.24l-1.17 6.63h5.41z"/>
</svg>
